# AST/ASF file generated using VICON BodyLanguage
# -----------------------------------------------
:version 1.10
:name VICON
:units
  mass 1.0
  length 0.45
  angle deg
:documentation
   .ast/.asf automatically generated from VICON data using
   VICON BodyBuilder and BodyLanguage model FoxedUp or BRILLIANT.MOD
:root
   order TX TY TZ RX RY RZ
   axis XYZ
   position 0 0 0  
   orientation 0 0 0 
:bonedata
  begin
     id 1 
     name lhipjoint
     direction 0.650112 -0.723553 0.232005 
     length 2.45805 
     axis 0 0 0  XYZ
  end
  begin
     id 2 
     name lfemur
     direction 0.34202 -0.939693 0  
     length 7.00073  
     axis 0 0 20  XYZ
    dof rx ry rz
    limits (-160.0 20.0)
           (-70.0 70.0)
           (-60.0 70.0)
  end
  begin
     id 3 
     name ltibia
     direction 0.34202 -0.939693 0   
     length 7.8748   
     axis 0 0 20   XYZ
    dof rx
    limits (-10.0 170.0)
  end
  begin
     id 4 
     name lfoot
     direction 0.0542825 -0.14914 0.987325   
     length 1.75978   
     axis -90 7.62852e-016 20   XYZ
    dof rx rz
    limits (-45.0 90.0)
           (-70.0 20.0)
  end
  begin
     id 5 
     name ltoes
     direction 1.53509e-011 -4.21906e-011 1   
     length 0.893912   
     axis -90 7.62852e-016 20   XYZ
    dof rx
    limits (-90.0 20.0)
  end
  begin
     id 6 
     name rhipjoint
     direction -0.637897 -0.733345 0.235145   
     length 2.42522  
     axis 0 0 0  XYZ 
  end
  begin
     id 7 
     name rfemur
     direction -0.34202 -0.939693 0   
     length 7.02549   
     axis 0 0 -20   XYZ
    dof rx ry rz
    limits (-160.0 20.0)
           (-70.0 70.0)
           (-70.0 60.0)
  end
  begin
     id 8 
     name rtibia
     direction -0.34202 -0.939693 0   
     length 7.71512   
     axis 0 0 -20   XYZ
    dof rx
    limits (-10.0 170.0)
 end
 begin
     id 9 
     name rfoot
     direction -0.0822618 -0.226012 0.970645   
     length 1.90014  
     axis -90 -7.62852e-016 -20   XYZ
    dof rx rz
    limits (-45.0 90.0)
           (-20.0 70.0)
  end
  begin
     id 10 
     name rtoes
     direction -1.53542e-011 -4.21872e-011 1   
     length 0.957341   
     axis -90 -7.62852e-016 -20   XYZ
    dof rx
    limits (-90.0 20.0)
  end
  begin
     id 11 
     name lowerback
     direction -0.0022947 0.999774 -0.0211557   
     length 1.89909   
     axis 0 0 0   XYZ
    dof rx ry rz
    limits (-20.0 45.0)
           (-30.0 30.0)
           (-30.0 30.0)
  end
  begin
     id 12 
     name upperback
     direction 0.0107737 0.998635 0.0511027   
     length 1.8853   
     axis 0 0 0   XYZ
    dof rx ry rz
    limits (-20.0 45.0)
           (-30.0 30.0)
           (-30.0 30.0)
  end
  begin
     id 13 
     name thorax
     direction 0.011824 0.998136 0.0598754   
     length 1.88911   
     axis 0 0 0   XYZ
    dof rx ry rz
    limits (-20.0 45.0)
           (-30.0 30.0)
           (-30.0 30.0)
  end
  begin
     id 14 
     name lowerneck
     direction -0.0685355 0.990319 0.120714   
     length 1.91222   
     axis 0 0 0   XYZ
    dof rx ry rz
    limits (-20.0 45.0)
           (-30.0 30.0)
           (-30.0 30.0)
  end
  begin
     id 15 
     name upperneck
     direction 0.0886204 0.955665 -0.280805   
     length 1.92526   
     axis 0 0 0   XYZ
    dof rx ry rz
    limits (-20.0 45.0)
           (-30.0 30.0)
           (-30.0 30.0)
  end
  begin
     id 16
     name head
     direction 0.0233423 0.993502 -0.111393  
     length 1.96056  
     axis 0 0 0   XYZ
    dof rx ry rz
    limits (-20.0 45.0)
           (-30.0 30.0)
           (-30.0 30.0)
  end
  begin
     id 17 
     name lclavicle
     direction 0.941873 0.32922 0.0670041  
     length 3.31705  
     axis 0 0 0   XYZ
    dof ry rz
    limits (-20.0 10.0)
           (0.0 20.0)
  end
  begin
     id 18 
     name lhumerus
     direction 1 -4.4898e-011 3.38707e-028   
     length 5.29277   
     axis 180 -30 -90   XYZ
    dof rx ry rz
    limits (-60.0 90.0)
           (-90.0 90.0)
           (-90.0 90.0)
  end
  begin
     id 19
     name lradius
     direction 1 -4.48952e-011 1.63213e-028   
     length 2.85226   
     axis 180 -30 -90   XYZ
    dof rx
    limits (-10.0 170.0)
  end
  begin
     id 20
     name lwrist
     direction 1 -4.49001e-011 1.27856e-027   
     length 1.42613   
     axis -1.61767e-015 90 90   XYZ
    dof ry
    limits (-180.0 0.0)
 end
  begin
     id 21 
     name lhand
     direction 1 -4.48976e-011 2.55931e-027   
     length 0.602097   
     axis -1.63363e-015 90 90   XYZ
    dof rx rz
    limits (-90.0 90.0)
           (-45.0 45.0)
  end
  begin
     id 22 
     name lfingers
     direction 1 -4.48986e-011 5.11684e-027   
     length 0.485426   
     axis -3.26723e-015 90 90   XYZ
    dof rx
    limits (0.0 90.0)
  end
  begin
     id 23
     name lthumb
     direction 0.707107 -6.34915e-011 0.707107   
     length 0.696978   
     axis -90 45 -2.25915e-014   XYZ
    dof rx rz
    limits (-45.0 45.0)
           (-45.0 45.0)
  end
  begin
     id 24 
     name rclavicle
     direction -0.939974 0.327078 0.0973096   
     length 3.10337  
     axis 0 0 0   XYZ 
    dof ry rz
    limits (-10.0 20.0)
           (-20.0 0.0)
  end
  begin
     id 25 
     name rhumerus
     direction -1 -4.48975e-011 1.83745e-027  
     length 5.13304   
     axis 180 30 90   XYZ
    dof rx ry rz
    limits (-90.0 60.0)
           (-90.0 90.0)
           (-90.0 90.0)
  end
  begin
     id 26 
     name rradius
     direction -1 -4.48977e-011 7.1775e-029   
     length 2.74305   
     axis 180 30 90   XYZ
    dof rx
    limits (-10.0 170.0)
  end
  begin
     id 27 
     name rwrist
     direction -1 -4.48977e-011 1.27963e-027   
     length 1.37152   
     axis -1.61767e-015 -90 -90   XYZ
    dof ry
    limits (-180.0 0.0)
  end
  begin
     id 28
     name rhand
     direction -1 -4.4888e-011 2.56782e-027   
     length 0.767976   
     axis -1.63363e-015 -90 -90   XYZ
    dof rx rz
    limits (-90.0 90.0)
           (-45.0 45.0)
  end
  begin
     id 29
     name rfingers
     direction -1 -4.48947e-011 5.12384e-027   
     length 0.619162   
     axis -3.26723e-015 -90 -90   XYZ
    dof rx
    limits (0.0 90.0)
  end
  begin
     id 30
     name rthumb
     direction -0.707107 -6.34857e-011 0.707107   
     length 0.888997   
     axis -90 -45 2.25915e-014   XYZ
    dof rx rz
    limits (-45.0 45.0)
           (-45.0 45.0)
  end
:hierarchy
  begin
    root lhipjoint rhipjoint lowerback
    lhipjoint lfemur
    lfemur ltibia
    ltibia lfoot
    lfoot ltoes
    rhipjoint rfemur
    rfemur rtibia
    rtibia rfoot
    rfoot rtoes
    lowerback upperback
    upperback thorax
    thorax lowerneck lclavicle rclavicle
    lowerneck upperneck
    upperneck head
    lclavicle lhumerus
    lhumerus lradius
    lradius lwrist
    lwrist lhand lthumb
    lhand lfingers
    rclavicle rhumerus
    rhumerus rradius
    rradius rwrist
    rwrist rhand rthumb
    rhand rfingers
  end

#!OML:ASF F:\VICON\USERDATA\INSTALL\rory3\rory3.ASF
:FULLY-SPECIFIED
:DEGREES
492
root -0.153998 16.5883 0.157162 -1.83602 -12.7243 -3.75698
lowerback -4.87132 -1.02048 -3.24835
upperback -7.54492 -1.42702 -1.88895
thorax -5.07011 -0.615188 -0.148367
lowerneck -5.96593 -12.1151 -18.0777
upperneck 23.6318 -18.9928 15.744
head 12.0654 -9.06902 6.08149
rclavicle 6.75868e-015 1.43125e-014
rhumerus 30.5587 15.5719 -78.7934
rradius 136.027
rwrist 17.4537
rhand 41.5193 8.62485
rfingers 7.12502
rthumb 63.642 -0.662298
lclavicle 6.75868e-015 1.43125e-014
lhumerus -13.4281 -14.3924 100.926
lradius 118.572
lwrist -17.6066
lhand 35.7175 45.4964
lfingers 7.12502
lthumb 58.7605 60.5153
rfemur -9.62372 9.12298 24.1583
rtibia 37.4746
rfoot -25.2805 -3.74902
rtoes -16.0969
lfemur -7.19304 2.97898 -13.2376
ltibia 40.3882
lfoot -28.3261 5.07757
ltoes -19.1073
493
root -0.154771 16.6003 0.155083 -1.8247 -12.9352 -3.68976
lowerback -4.91029 -1.00422 -3.33003
upperback -7.56288 -1.40554 -1.93228
thorax -5.06767 -0.601858 -0.1483
lowerneck -6.05438 -12.1941 -18.0249
upperneck 23.6236 -19.067 15.6196
head 12.0739 -9.10328 6.00322
rclavicle -2.38542e-015 1.27222e-014
rhumerus 30.8039 15.5001 -78.7899
rradius 136.141
rwrist 17.4806
rhand 41.3929 8.45948
rfingers 7.12502
rthumb 63.5393 -0.976
lclavicle -2.38542e-015 1.27222e-014
lhumerus -13.438 -14.4723 101.078
lradius 118.58
lwrist -17.7564
lhand 36.0921 45.5326
lfingers 7.12502
lthumb 59.0845 60.2394
rfemur -9.52668 9.51475 24.1398
rtibia 37.2119
rfoot -25.1136 -3.92026
rtoes -16.0799
lfemur -6.9868 2.90157 -13.3617
ltibia 40.0252
lfoot -28.1863 5.09632
ltoes -17.9885
494
root -0.156011 16.6117 0.154974 -1.7252 -13.1096 -3.69802
lowerback -4.96172 -1.00536 -3.35704
upperback -7.6533 -1.40894 -1.93367
thorax -5.13473 -0.601319 -0.135292
lowerneck -6.15848 -12.2502 -18.1076
upperneck 23.6833 -19.1235 15.5827
head 12.1355 -9.13269 5.9845
rclavicle 2.38542e-015 2.8625e-014
rhumerus 30.6585 15.8445 -78.7904
rradius 136.373
rwrist 17.7504
rhand 41.1492 8.34366
rfingers 7.12502
rthumb 63.3407 -1.37432
lclavicle 2.38542e-015 2.8625e-014
lhumerus -13.5222 -14.4825 101.258
lradius 118.557
lwrist -17.7907
lhand 36.5121 45.3579
lfingers 7.12502
lthumb 59.4464 59.7064
rfemur -9.51057 9.84255 24.184
rtibia 36.986
rfoot -24.9823 -4.05673
rtoes -16.0374
lfemur -6.90413 2.81087 -13.4085
ltibia 39.7228
lfoot -28.1189 5.38073
ltoes -18.0602
495
root -0.158634 16.6222 0.155822 -1.62671 -13.3105 -3.81448
lowerback -5.01838 -1.01748 -3.3135
upperback -7.72442 -1.42509 -1.89161
thorax -5.17786 -0.609862 -0.116693
lowerneck -6.25441 -12.2833 -18.1328
upperneck 23.6181 -19.1271 15.5334
head 12.1267 -9.13537 5.96005
rclavicle -2.78299e-014 -3.49861e-014
rhumerus 30.3473 16.3056 -78.6614
rradius 136.666
rwrist 18.2075
rhand 40.5295 8.32111
rfingers 7.12502
rthumb 62.8327 -2.09591
lclavicle -2.78299e-014 -3.49861e-014
lhumerus -13.623 -14.4639 101.406
lradius 118.531
lwrist -17.717
lhand 36.7368 45.1381
lfingers 7.12502
lthumb 59.6396 59.2913
rfemur -9.45432 10.2479 24.3633
rtibia 36.763
rfoot -24.8187 -4.25273
rtoes -16.2355
lfemur -6.79464 2.76562 -13.3183
ltibia 39.4799
lfoot -28.1508 5.66336
ltoes -18.4786
496
root -0.161537 16.6322 0.155741 -1.54185 -13.493 -3.82109
lowerback -5.12892 -1.05158 -3.34022
upperback -7.74462 -1.46776 -1.92929
thorax -5.13691 -0.631813 -0.143091
lowerneck -6.2961 -12.3238 -18.0817
upperneck 23.3699 -19.1592 15.5809
head 12.0442 -9.14065 5.95435
rclavicle 2.06736e-014 1.90833e-014
rhumerus 29.7584 16.8143 -78.6035
rradius 137.045
rwrist 18.5485
rhand 39.7657 8.59575
rfingers 7.12502
rthumb 62.2007 -2.64598
lclavicle 2.06736e-014 1.90833e-014
lhumerus -13.6928 -14.4721 101.429
lradius 118.583
lwrist -17.5717
lhand 36.8665 44.9224
lfingers 7.12502
lthumb 59.7508 58.9617
rfemur -9.4548 10.6305 24.4152
rtibia 36.5951
rfoot -24.6585 -4.42015
rtoes -16.39
lfemur -6.71549 2.7766 -13.3445
ltibia 39.2507
lfoot -28.1207 5.99417
ltoes -19.3314
497
root -0.163869 16.64 0.154125 -1.47051 -13.6414 -3.82518
lowerback -5.17768 -1.12191 -3.36262
upperback -7.75972 -1.56196 -1.97808
thorax -5.1248 -0.679657 -0.182831
lowerneck -6.35097 -12.3572 -18.0341
upperneck 23.0839 -19.1862 15.6779
head 11.9556 -9.13951 5.96777
rclavicle 5.88403e-014 4.45278e-014
rhumerus 29.075 17.6343 -78.8892
rradius 137.284
rwrist 18.3948
rhand 39.9629 9.20177
rfingers 7.12502
rthumb 62.3644 -1.83085
lclavicle 5.88403e-014 4.45278e-014
lhumerus -13.7627 -14.4332 101.364
lradius 118.683
lwrist -17.4384
lhand 37.0085 44.8102
lfingers 7.12502
lthumb 59.8726 58.7236
rfemur -9.48556 10.9411 24.4526
rtibia 36.4857
rfoot -24.5862 -4.4663
rtoes -15.9837
lfemur -6.65281 2.79223 -13.3566
ltibia 39.0378
lfoot -28.0768 6.11593
ltoes -19.1787
498
root -0.16455 16.6445 0.153035 -1.41646 -13.8006 -3.57629
lowerback -5.23292 -1.21023 -3.6652
upperback -7.83812 -1.67823 -2.01931
thorax -5.1707 -0.722236 -0.0588928
lowerneck -6.35973 -12.3558 -18.1019
upperneck 22.8395 -19.1405 15.719
head 11.8659 -9.12222 5.99594
rclavicle -4.29375e-014 -2.38542e-014
rhumerus 28.1997 18.5936 -79.1795
rradius 137.62
rwrist 17.8807
rhand 40.4407 9.4537
rfingers 7.12502
rthumb 62.7595 -1.06128
lclavicle -4.29375e-014 -2.38542e-014
lhumerus -13.9746 -14.302 101.43
lradius 118.803
lwrist -17.2864
lhand 37.1697 44.8062
lfingers 7.12502
lthumb 60.0104 58.5755
rfemur -9.59601 11.1789 24.187
rtibia 36.4448
rfoot -24.6238 -4.48817
rtoes -15.5995
lfemur -6.64675 2.84323 -13.6581
ltibia 38.8677
lfoot -28.0364 6.20059
ltoes -18.8265
499
root -0.165178 16.6482 0.151253 -1.39806 -13.9609 -3.35944
lowerback -5.19989 -1.31741 -3.98224
upperback -7.96714 -1.82546 -2.01927
thorax -5.31735 -0.775858 0.117798
lowerneck -6.25359 -12.3088 -18.2207
upperneck 22.6159 -19.0494 15.778
head 11.7603 -9.09447 6.05587
rclavicle 1.59028e-014 2.54444e-014
rhumerus 26.85 19.6148 -79.4561
rradius 138.265
rwrist 17.2961
rhand 40.6266 9.37343
rfingers 7.12502
rthumb 62.9125 -0.935939
lclavicle 1.59028e-014 2.54444e-014
lhumerus -14.3597 -14.0939 101.499
lradius 118.955
lwrist -16.9999
lhand 37.3448 44.8114
lfingers 7.12502
lthumb 60.1601 58.4225
rfemur -9.69173 11.4159 23.9596
rtibia 36.4665
rfoot -24.6389 -4.49454
rtoes -15.3949
lfemur -6.62631 2.88027 -13.9339
ltibia 38.7717
lfoot -28.0057 6.37565
ltoes -18.9024
500
root -0.166592 16.647 0.148538 -1.37268 -14.102 -3.42849
lowerback -5.18249 -1.38501 -3.98861
upperback -8.00627 -1.91741 -1.98036
thorax -5.36484 -0.81929 0.161799
lowerneck -6.09797 -12.2927 -18.4298
upperneck 22.2231 -19.0179 16.007
head 11.6243 -9.09002 6.18144
rclavicle 3.02153e-014 2.70347e-014
rhumerus 25.3604 20.5709 -79.877
rradius 138.894
rwrist 16.6216
rhand 40.4387 9.72549
rfingers 7.12502
rthumb 62.7579 -0.791663
lclavicle 3.02153e-014 2.70347e-014
lhumerus -14.6607 -14.0717 101.578
lradius 119.071
lwrist -16.6061
lhand 36.9675 44.8156
lfingers 7.12502
lthumb 59.8374 58.7655
rfemur -9.75775 11.5961 24.0536
rtibia 36.5694
rfoot -24.6294 -4.5447
rtoes -15.2653
lfemur -6.61722 2.93337 -13.8632
ltibia 38.7736
lfoot -28.0347 6.45037
ltoes -18.9225
501
root -0.168566 16.6403 0.144246 -1.36562 -14.2129 -3.43039
lowerback -5.19684 -1.42728 -4.01459
upperback -7.87783 -1.96816 -2.02812
thorax -5.21882 -0.847953 0.124928
lowerneck -6.22586 -12.415 -18.4957
upperneck 21.6421 -19.1456 16.3033
head 11.4998 -9.12299 6.25543
rclavicle -5.96354e-015 -4.77083e-015
rhumerus 23.9768 21.2767 -80.253
rradius 140.207
rwrist 14.3915
rhand 42.6739 8.07274
rfingers 7.12502
rthumb 64.5712 0.197796
lclavicle -5.96354e-015 -4.77083e-015
lhumerus -14.5042 -14.2343 101.549
lradius 119.188
lwrist -16.4187
lhand 36.641 44.8142
lfingers 7.12502
lthumb 59.5573 59.051
rfemur -9.86729 11.6804 24.0695
rtibia 36.7363
rfoot -24.6736 -4.6156
rtoes -14.9805
lfemur -6.6764 2.96445 -13.8613
ltibia 38.8853
lfoot -28.15 6.54728
ltoes -19.0291
502
root -0.17144 16.6295 0.137988 -1.37432 -14.3546 -3.32536
lowerback -5.14929 -1.48174 -4.23458
upperback -7.7281 -2.03391 -2.05804
thorax -5.07942 -0.873107 0.215532
lowerneck -6.57461 -12.5793 -18.4649
upperneck 21.1152 -19.2796 16.4681
head 11.4149 -9.14766 6.25012
rclavicle -1.47101e-014 -4.77083e-015
rhumerus 22.6197 22.3607 -80.1165
rradius 139.911
rwrist 16.0739
rhand 39.4931 11.5604
rfingers 7.12502
rthumb 61.9737 0.033808
lclavicle -1.47101e-014 -4.77083e-015
lhumerus -14.1104 -14.3022 101.534
lradius 119.333
lwrist -16.4614
lhand 36.6261 44.978
lfingers 7.12502
lthumb 59.5445 59.2278
rfemur -10.0451 11.7859 23.9659
rtibia 36.9727
rfoot -24.7269 -4.62032
rtoes -14.5239
lfemur -6.79871 3.08925 -13.9529
ltibia 39.1058
lfoot -28.2562 6.51332
ltoes -18.8526
503
root -0.173566 16.618 0.129027 -1.32982 -14.5408 -3.32892
lowerback -5.085 -1.51409 -4.33
upperback -7.69654 -2.07874 -2.06406
thorax -5.07839 -0.89096 0.26332
lowerneck -6.53851 -12.6644 -18.4964
upperneck 20.5154 -19.3438 16.6416
head 11.2217 -9.17096 6.29422
rclavicle 2.5842e-014 -6.36111e-015
rhumerus 21.2534 22.9608 -80.3166
rradius 141.422
rwrist 12.7918
rhand 43.5328 9.162
rfingers 7.12502
rthumb 65.2509 2.4085
lclavicle 2.5842e-014 -6.36111e-015
lhumerus -14.0643 -14.2941 101.499
lradius 119.461
lwrist -16.3961
lhand 36.6863 45.2352
lfingers 7.12502
lthumb 59.5961 59.4326
rfemur -10.3357 11.862 23.9623
rtibia 37.2873
rfoot -24.9388 -4.58405
rtoes -15.1004
lfemur -6.9823 3.31162 -13.9149
ltibia 39.3896
lfoot -28.3467 6.50092
ltoes -18.9973
